<svg xmlns="http://www.w3.org/2000/svg" viewBox="0 0 350 350" xml:space="preserve"><defs><linearGradient id="b" spreadMethod="pad" gradientTransform="matrix(0 169.08673 169.08673 0 960 533.03)" gradientUnits="userSpaceOnUse" y2="0" x2="1" y1="0" x1="0"><stop offset="0" style="stop-opacity:1;stop-color:#783922"/><stop offset="1" style="stop-opacity:1;stop-color:#de855b"/></linearGradient><linearGradient id="d" spreadMethod="pad" gradientTransform="scale(-255.20002 255.20002) rotate(89.18 -2.86 -.95)" gradientUnits="userSpaceOnUse" y2="0" x2="1" y1="0" x1="0"><stop offset="0" style="stop-opacity:1;stop-color:#783922"/><stop offset="1" style="stop-opacity:1;stop-color:#de855b"/></linearGradient><clipPath id="a" clipPathUnits="userSpaceOnUse"><path d="M920.99 664.12a37.98 37.98 0 0 1 33.6-37.74 9.02 9.02 0 0 1-.05-.88v-92.47h8.9v93.44a29.77 29.77 0 0 1 25.15 29.26 29.64 29.64 0 0 1-29.6 29.61h-4.45v-49.99a29.09 29.09 0 0 0-24.65 28.77 29.13 29.13 0 0 0 29.03 29.1 39.34 39.34 0 0 0 26.37-11.44c7.2-7.1 11.18-16.35 11.18-26.05 0-14.7-8.66-28.12-22.06-34.18l-2.62-1.18v-87.34h8.9v81.7a46.51 46.51 0 0 1 24.68 41c0 12.1-4.91 23.6-13.84 32.4a48.23 48.23 0 0 1-32.4 13.98h-.14c-20.96 0-38-17.04-38-38m42.45 11.85a20.74 20.74 0 0 0 16.25-20.23c0-9.81-6.99-18.16-16.25-20.22zm-26.3-142.93h8.9v86.36h-8.9zm54.5 48.85a6.36 6.36 0 1 1 12.72 0 6.36 6.36 0 0 1-12.72 0m-77.01 0a6.36 6.36 0 1 1 12.72 0 6.36 6.36 0 1 1-12.72 0m77-20.97a6.36 6.36 0 1 1 12.72 0 6.36 6.36 0 0 1-12.72 0m-77 0a6.36 6.36 0 0 1 12.72 0 6.36 6.36 0 0 1-12.72 0"/></clipPath><clipPath id="c" clipPathUnits="userSpaceOnUse"><path d="M832.4 617.73c0-70.36 57.24-127.6 127.6-127.6 70.36 0 127.6 57.24 127.6 127.6 0 70.36-57.24 127.6-127.6 127.6-70.36 0-127.6-57.24-127.6-127.6m9.67 0c0 65.03 52.9 117.93 117.93 117.93s117.93-52.9 117.93-117.93S1025.03 499.8 960 499.8s-117.93 52.9-117.93 117.93"/></clipPath></defs><g clip-path="url(#a)" transform="matrix(1.33333 0 0 -1.33333 -1104.96 998.6)"><path d="M920.99 664.12a37.98 37.98 0 0 1 33.6-37.74 9.02 9.02 0 0 1-.05-.88v-92.47h8.9v93.44a29.77 29.77 0 0 1 25.15 29.26 29.64 29.64 0 0 1-29.6 29.61h-4.45v-49.99a29.09 29.09 0 0 0-24.65 28.77 29.13 29.13 0 0 0 29.03 29.1 39.34 39.34 0 0 0 26.37-11.44c7.2-7.1 11.18-16.35 11.18-26.05 0-14.7-8.66-28.12-22.06-34.18l-2.62-1.18v-87.34h8.9v81.7a46.51 46.51 0 0 1 24.68 41c0 12.1-4.91 23.6-13.84 32.4a48.23 48.23 0 0 1-32.4 13.98h-.14c-20.96 0-38-17.04-38-38m42.45 11.85a20.74 20.74 0 0 0 16.25-20.23c0-9.81-6.99-18.16-16.25-20.22zm-26.3-142.93h8.9v86.36h-8.9zm54.5 48.85a6.36 6.36 0 1 1 12.72 0 6.36 6.36 0 0 1-12.72 0m-77.01 0a6.36 6.36 0 1 1 12.72 0 6.36 6.36 0 1 1-12.72 0m77-20.97a6.36 6.36 0 1 1 12.72 0 6.36 6.36 0 0 1-12.72 0m-77 0a6.36 6.36 0 0 1 12.72 0 6.36 6.36 0 0 1-12.72 0" style="fill:url(#b);stroke:none"/></g><g clip-path="url(#c)" transform="matrix(1.33333 0 0 -1.33333 -1104.96 998.6)"><path d="M832.4 617.73c0-70.36 57.24-127.6 127.6-127.6 70.36 0 127.6 57.24 127.6 127.6 0 70.36-57.24 127.6-127.6 127.6-70.36 0-127.6-57.24-127.6-127.6m9.67 0c0 65.03 52.9 117.93 117.93 117.93s117.93-52.9 117.93-117.93S1025.03 499.8 960 499.8s-117.93 52.9-117.93 117.93" style="fill:url(#d);stroke:none"/></g></svg>