<svg width="400" height="950" xmlns="http://www.w3.org/2000/svg" xml:space="preserve">
 <defs>
  <clipPath id="a" clipPathUnits="userSpaceOnUse">
   <path d="m843.8,768.83a113.12,113.12 0 0 1 100.06,-112.41c-0.08,-0.86 -0.13,-1.73 -0.13,-2.6l0,-275.46l26.52,0l0,278.34c42.23,6.47 74.91,43.36 74.91,87.15c0,48.63 -39.55,88.2 -88.17,88.2l-13.26,0l0,-148.9a86.63,86.63 0 0 0 -73.42,85.68c0,47.71 38.77,86.55 86.48,86.66c29.35,-0.97 57.22,-13.05 78.52,-34.05c21.49,-21.16 33.32,-48.72 33.32,-77.6c0,-43.78 -25.8,-83.74 -65.72,-101.79l-7.8,-3.52l0,-260.15l26.51,0l0,243.34a138.52,138.52 0 0 1 73.52,122.13c0,36.03 -14.64,70.3 -41.22,96.48c-26.12,25.74 -60.4,40.54 -96.52,41.66l-0.41,0.01c-62.42,0 -113.2,-50.77 -113.2,-113.17m126.46,35.26a61.78,61.78 0 0 0 48.4,-60.24c0,-29.24 -20.82,-54.09 -48.4,-60.21l0,120.45zm-78.32,-425.72l26.51,0l0,257.25l-26.51,0l0,-257.25zm162.3,145.51a18.94,18.94 0 1 1 37.88,0a18.94,18.94 0 0 1 -37.88,0m-229.37,0a18.94,18.94 0 0 1 37.88,0a18.94,18.94 0 0 1 -37.88,0m229.37,-62.46a18.94,18.94 0 1 1 37.88,0a18.94,18.94 0 0 1 -37.88,0m-229.37,0a18.94,18.94 0 1 1 37.88,0a18.94,18.94 0 0 1 -37.88,0" id="svg_1"/>
  </clipPath>
  <clipPath id="c" clipPathUnits="userSpaceOnUse">
   <path d="m0,1080l1920,0l0,-1080l-1920,0l0,1080z" id="svg_2"/>
  </clipPath>
  <clipPath id="d" clipPathUnits="userSpaceOnUse">
   <path d="m836.51,333.5l0,-44.98l8.6,0l0,13.4l10.02,0c2.87,0 5.4,0.4 7.6,1.2a14.06,14.06 0 0 1 8.7,8.27c0.73,1.88 1.1,3.93 1.1,6.14c0,2.21 -0.43,4.3 -1.26,6.24a16.15,16.15 0 0 1 -3.42,5.07a16.16,16.16 0 0 1 -5.07,3.4a15.58,15.58 0 0 1 -6.23,1.27l-20.04,-0.01zm8.6,-7.61l10.51,0c1.36,0 2.54,-0.25 3.57,-0.74a8.19,8.19 0 0 0 2.58,-1.9a8.76,8.76 0 0 0 2.15,-5.71l0,-0.01c0,-1.02 -0.14,-2 -0.43,-2.95a7.41,7.41 0 0 0 -1.32,-2.52a6.21,6.21 0 0 0 -2.3,-1.75a7.93,7.93 0 0 0 -3.32,-0.65l-11.43,0l-0.01,16.23z" id="svg_3"/>
  </clipPath>
  <clipPath id="f" clipPathUnits="userSpaceOnUse">
   <path d="m878.18,333.5l0,-44.98l8.6,0l0,14.32l8.51,0c1.72,-2.45 3.44,-4.87 5.15,-7.25a284.4,284.4 0 0 1 5.27,-7.06l10.26,0a964.43,964.43 0 0 1 -11.2,15.11c2.83,1.1 5.1,2.93 6.8,5.47a15.62,15.62 0 0 1 2.56,8.91c0,2.25 -0.38,4.34 -1.14,6.24a14.08,14.08 0 0 1 -8.06,8.11c-1.91,0.76 -4.02,1.14 -6.32,1.14l-20.43,-0.01zm8.6,-7.61l11.82,0c1.51,0 2.72,-0.29 3.62,-0.86c0.9,-0.58 1.59,-1.27 2.08,-2.1c0.49,-0.81 0.82,-1.67 0.98,-2.57c0.16,-0.9 0.24,-1.68 0.24,-2.34a7.67,7.67 0 0 0 -2.27,-5.68a7.01,7.01 0 0 0 -4.65,-1.88l-11.82,0l0,15.43z" id="svg_4"/>
  </clipPath>
  <clipPath id="h" clipPathUnits="userSpaceOnUse">
   <path d="m923.65,288.52l8.6,0l0,44.93l-8.6,0l0,-44.93z" id="svg_5"/>
  </clipPath>
  <clipPath id="j" clipPathUnits="userSpaceOnUse">
   <path d="m988.05,333.45l-22.12,-25.94l-22.06,25.94l-0.55,0l0,-44.92l8.6,0l0,22.73l14.01,-16.9l14.07,16.9l0,-22.73l8.6,0l0,44.92l-0.55,0z" id="svg_6"/>
  </clipPath>
  <clipPath id="l" clipPathUnits="userSpaceOnUse">
   <path d="m1028.49,333.45l0,-26.75c0,-2.25 -0.37,-4.11 -1.1,-5.59a10.15,10.15 0 0 0 -2.74,-3.5a9.46,9.46 0 0 0 -3.5,-1.77a13.4,13.4 0 0 0 -3.35,-0.5c-0.99,0 -2.1,0.17 -3.35,0.5a9.45,9.45 0 0 0 -3.5,1.78c-1.1,0.85 -2,2.02 -2.74,3.5a12.44,12.44 0 0 0 -1.1,5.58l0,26.75l-8.61,0l0,-26.8c0,-2.86 0.46,-5.46 1.38,-7.8a16.81,16.81 0 0 1 3.9,-5.96a17.44,17.44 0 0 1 6.09,-3.81c2.37,-0.9 5.02,-1.35 7.92,-1.35c2.95,0 5.62,0.45 8,1.35c2.37,0.9 4.4,2.17 6.08,3.8a16.5,16.5 0 0 1 3.87,5.97c0.9,2.34 1.35,4.94 1.35,7.8l0,26.8l-8.6,0z" id="svg_7"/>
  </clipPath>
  <clipPath id="n" clipPathUnits="userSpaceOnUse">
   <path d="m1045.2,333.45l0,-7.93l23.23,0l-25.13,-36.01l0,-0.98l39.33,0l0,7.98l-24.22,0l25.08,35.9l0,1.04l-38.29,0z" id="svg_8"/>
  </clipPath>
  <linearGradient id="e" spreadMethod="pad" y2="0.99984" x2="0.5" y1="0" x1="0.5">
   <stop offset="0" stop-color="#783922"/>
   <stop offset="1" stop-color="#b86846"/>
  </linearGradient>
  <linearGradient id="g" spreadMethod="pad" y2="0.99984" x2="0.49987" y1="0" x1="0.49987">
   <stop offset="0" stop-color="#783922"/>
   <stop offset="1" stop-color="#b86846"/>
  </linearGradient>
  <linearGradient id="i" spreadMethod="pad" y2="0.99982" x2="0.5" y1="0" x1="0.5">
   <stop offset="0" stop-color="#783922"/>
   <stop offset="1" stop-color="#b86846"/>
  </linearGradient>
  <linearGradient id="k" spreadMethod="pad" y2="0.99982" x2="0.5" y1="-0.00022" x1="0.5">
   <stop offset="0" stop-color="#783922"/>
   <stop offset="1" stop-color="#b86846"/>
  </linearGradient>
  <linearGradient id="m" spreadMethod="pad" y2="1.00001" x2="0.50013" y1="0" x1="0.50013">
   <stop offset="0" stop-color="#783922"/>
   <stop offset="1" stop-color="#b86846"/>
  </linearGradient>
  <linearGradient id="o" spreadMethod="pad" y2="0.99982" x2="0.50012" y1="-0.00022" x1="0.50012">
   <stop offset="0" stop-color="#783922"/>
   <stop offset="1" stop-color="#b86846"/>
  </linearGradient>
 </defs>
 <g>
  <title>Layer 1</title>
  <g clip-path="url(#c)" transform="matrix(1.33333 0 0 -1.33333 -1080.45 1196.48)" id="svg_11">
   <path d="m1069.37,210.48l4.02,8.45l3.95,-8.45l-7.97,0zm4.58,15.39l-1.13,0l-13.02,-27.55l3.83,0l4.17,8.81l11.1,0l4.2,-8.8l3.7,0l-12.85,27.54z" fill="#fff" fill-rule="nonzero" id="svg_12"/>
   <path d="m1038.39001,214.07001l0,8.34l4.34,0c1.78,0 3.06,-0.14 3.79,-0.44a3.98,3.98 0 0 0 2.4,-3.68c0,-0.86 -0.21,-1.62 -0.65,-2.3a3.68,3.68 0 0 0 -1.83,-1.48c-0.8,-0.3 -2.08,-0.47 -3.82,-0.47l-4.23,0.03zm7.05,-3.33c0.85,0.12 1.8,0.38 2.84,0.86a6.84,6.84 0 0 1 3.12,2.65a7.49,7.49 0 0 1 1.08,4.04c0,1.84 -0.53,3.4 -1.58,4.68a7.39,7.39 0 0 1 -4.1,2.45c-1.07,0.26 -3.14,0.38 -6.13,0.38l-5.72,0l0,-27.56l3.44,0l0,12.45l2.9,0l7.68,-12.45l4.18,0l-7.71,12.5z" fill="#fff" fill-rule="nonzero" id="svg_13"/>
   <path d="m1011.34003,225.8l0,-3.36l5.98,0l0,-24.2l3.49,0l0,24.2l6,0l0,3.36l-15.47,0z" fill="#fff" fill-rule="nonzero" id="svg_14"/>
   <path d="m1003.34003,209.53c-0.88,1.14 -2.51,2.6 -4.84,4.32a40.55,40.55 0 0 0 -3.42,2.66a5.27,5.27 0 0 0 -1.25,1.65a3.7,3.7 0 0 0 -0.34,1.55c0,0.85 0.3,1.55 0.92,2.13c0.62,0.6 1.4,0.88 2.37,0.88c0.78,0 1.48,-0.2 2.13,-0.58c0.67,-0.4 1.5,-1.26 2.47,-2.54l0.23,-0.3l2.78,2.1l-0.21,0.3a13.09,13.09 0 0 1 -3.61,3.56a7.42,7.42 0 0 1 -7.21,0.13a6.4,6.4 0 0 1 -3.4,-5.79c0,-1.56 0.5,-3.02 1.51,-4.32c0.56,-0.8 1.95,-2.04 4.28,-3.79c2.16,-1.2 3.68,-2.39 4.47,-3.53a3.94,3.94 0 0 0 0.27,-4.47a4.16,4.16 0 0 0 -1.65,-1.54a5.04,5.04 0 0 0 -2.36,-0.58c-1.93,0 -3.7,1.42 -5.22,4.22l-0.18,0.35l-2.94,-1.77l0.18,-0.32c1.13,-2.07 2.39,-3.59 3.78,-4.49a8.42,8.42 0 0 1 4.65,-1.35c2.2,0 4.1,0.75 5.63,2.25a7.25,7.25 0 0 1 2.36,5.37a6.3,6.3 0 0 1 -1.4,3.9" fill="#fff" fill-rule="nonzero" id="svg_15"/>
   <path d="m981.02002,222.39999l0,3.4l-16.13,0l0,-27.57l16.02,0l0,3.41l-12.58,0l0,9.77l7.73,0l0,3.37l-7.73,0l0,7.62l12.69,0z" fill="#fff" fill-rule="nonzero" id="svg_16"/>
   <path d="m950.79999,225.8l0,-11.25l-12.89,0l0,11.25l-3.45,0l0,-27.56l3.45,0l0,12.92l12.89,0l0,-12.92l3.42,0l0,27.56l-3.42,0z" fill="#fff" fill-rule="nonzero" id="svg_17"/>
   <path d="m922.17999,205.57001a11.58,11.58 0 0 0 -9.13,-4.28c-3.3,0 -6.06,0.98 -8.22,2.9a9.74,9.74 0 0 0 -3.24,7.6c0,2.09 0.49,4 1.46,5.65a10.63,10.63 0 0 0 4.1,3.99c1.74,0.99 3.7,1.49 5.75,1.49c1.88,0 3.63,-0.38 5.22,-1.13a11.03,11.03 0 0 0 4.04,-3.32l0.23,-0.3l2.74,2.03l-0.23,0.3a13.6,13.6 0 0 1 -5.1,4.31a15.5,15.5 0 0 1 -6.95,1.54c-4.21,0 -7.77,-1.4 -10.59,-4.14a13.75,13.75 0 0 1 -4.25,-10.18c0,-3.4 1.18,-6.51 3.49,-9.2c2.78,-3.2 6.62,-4.81 11.4,-4.81c2.5,0 4.82,0.47 6.84,1.41c2.06,0.96 3.8,2.31 5.16,4.05l0.23,0.3l-2.72,2.06l-0.23,-0.27z" fill="#fff" fill-rule="nonzero" id="svg_18"/>
   <path d="m875.27002,214.07001l0,8.34l4.34,0c1.8,0 3.07,-0.14 3.8,-0.44a3.77,3.77 0 0 0 1.74,-1.43a4.26,4.26 0 0 0 0.02,-4.55a3.66,3.66 0 0 0 -1.84,-1.48c-0.83,-0.3 -2.1,-0.47 -3.84,-0.47l-4.22,0.03zm7.06,-3.33c0.84,0.12 1.78,0.38 2.83,0.86c1.36,0.58 2.4,1.5 3.12,2.65a7.38,7.38 0 0 1 1.1,4.04c0,1.84 -0.53,3.4 -1.6,4.68a7.33,7.33 0 0 1 -4.1,2.45c-1.09,0.26 -3.1,0.38 -6.13,0.38l-5.7,0l0,-27.56l3.42,0l0,12.45l2.9,0l7.68,-12.45l4.18,0l-7.7,12.5z" fill="#fff" fill-rule="nonzero" id="svg_19"/>
   <path d="m857.21997,206.81a10.45,10.45 0 0 0 -4,-3.97a11.08,11.08 0 0 0 -5.57,-1.46c-3,0 -5.59,0.94 -7.7,2.84a9.59,9.59 0 0 0 -3.18,7.47c0,2.04 0.48,3.96 1.43,5.65a10.6,10.6 0 0 0 4.02,4.02a10.77,10.77 0 0 0 10.97,0a10.65,10.65 0 0 0 5.46,-9.56c0,-1.63 -0.49,-3.32 -1.43,-4.99m0.75,15.28a14.2,14.2 0 0 1 -10.43,4.17a14.14,14.14 0 0 1 -12.42,-7.25a14.62,14.62 0 0 1 -1.9,-7.32c0,-3.53 1.41,-6.74 4.21,-9.5a14.2,14.2 0 0 1 10.33,-4.2c4,0 7.45,1.3 10.22,3.87c2.79,2.6 4.2,5.95 4.2,9.95c0,4.06 -1.41,7.5 -4.21,10.29" fill="#fff" fill-rule="nonzero" id="svg_20"/>
   <path d="m1065.40002,258.38l0,10.26l5.34,0c2.16,0 3.73,-0.2 4.63,-0.55a4.86,4.86 0 0 0 2.95,-4.53c0,-1.03 -0.27,-2 -0.8,-2.82a4.6,4.6 0 0 0 -2.25,-1.84c-0.99,-0.38 -2.57,-0.57 -4.67,-0.57l-5.2,0.05zm8.5,-3.9c1.03,0.13 2.21,0.48 3.52,1.05a8.45,8.45 0 0 1 3.75,3.17a9.02,9.02 0 0 1 1.3,4.85a8.5,8.5 0 0 1 -1.9,5.62a8.9,8.9 0 0 1 -4.91,2.95c-1.33,0.3 -3.75,0.44 -7.41,0.44l-6.85,0l0,-33.18l4,0l0,15.08l3.64,0l9.3,-15.08l4.87,0l-9.31,15.1z" fill="#fff" fill-rule="nonzero" id="svg_21"/>
   <path d="m1050.56006,268.62l0,3.96l-19.36,0l0,-33.2l19.22,0l0,3.96l-15.21,0l0,11.98l9.35,0l0,3.91l-9.36,0l0,9.39l15.36,0z" fill="#fff" fill-rule="nonzero" id="svg_22"/>
   <path d="m1016,246.07001a5.7,5.7 0 0 0 -2.5,-2c-1.05,-0.45 -2.73,-0.7 -5.03,-0.7l-7.55,0l0,11.7l5.36,0c2.7,0 4.6,-0.13 5.66,-0.39a6.86,6.86 0 0 0 3.68,-2.1a5.3,5.3 0 0 0 0.38,-6.51m-15.08,22.66l7.29,0c2.14,0 3.73,-0.4 4.69,-1.19a3.86,3.86 0 0 0 1.41,-3.2a4.9,4.9 0 0 0 -3.2,-4.65c-1,-0.41 -2.63,-0.6 -4.8,-0.6l-5.39,0l0,9.64zm19.36,-15.86a8.62,8.62 0 0 1 -2.22,2.94c-0.81,0.67 -1.9,1.26 -3.28,1.81a8.06,8.06 0 0 1 2.56,2.57a8.27,8.27 0 0 1 -0.14,8.55c-0.83,1.31 -1.99,2.33 -3.44,2.97c-1.43,0.61 -3.48,0.95 -6.08,0.95l-10.69,0l0,-33.2l13.18,0c3.27,0 5.94,0.93 7.92,2.8a9.16,9.16 0 0 1 2.98,6.88c0,1.36 -0.26,2.6 -0.8,3.73" fill="#fff" fill-rule="nonzero" id="svg_23"/>
   <path d="m982.25,272.23999l-0.04,0.34l-1.1,0l-12.8,-26.13l-12.86,25.91l-0.1,0.21l-1.1,0l-4.67,-32.77l-0.06,-0.43l3.9,0l3.04,22.46l11.06,-22.25l0.1,-0.21l1.3,0l11.02,22.3l3.03,-21.97l0.04,-0.32l3.99,0l-4.75,32.86z" fill="#fff" fill-rule="nonzero" id="svg_24"/>
   <path d="m920.88,254.02l5,10.5l4.9,-10.5l-9.9,0zm5.63,18.64l-1.26,0l-15.7,-33.19l4.47,0l5.05,10.68l13.53,0l5.1,-10.68l4.29,0l-15.48,33.19z" fill="#fff" fill-rule="nonzero" id="svg_25"/>
   <path d="m896.51001,272.57999l0,-13.6l-15.75,0l0,13.6l-4.02,0l0,-33.2l4.02,0l0,15.64l15.75,0l0,-15.64l4,0l0,33.2l-4,0z" fill="#fff" fill-rule="nonzero" id="svg_26"/>
   <path d="m863.02002,248.38l-0.23,-0.27a14.1,14.1 0 0 0 -11.1,-5.2c-4.02,0 -7.39,1.18 -10.02,3.52c-2.62,2.33 -3.95,5.45 -3.95,9.27c0,2.54 0.6,4.85 1.78,6.88a13.13,13.13 0 0 0 4.99,4.87a14.21,14.21 0 0 0 7,1.8c2.3,0 4.43,-0.46 6.35,-1.38a13.4,13.4 0 0 0 4.93,-4.04l0.23,-0.3l3.18,2.37l-0.22,0.3a16.53,16.53 0 0 1 -6.13,5.18a18.9,18.9 0 0 1 -8.4,1.84c-5.07,0 -9.36,-1.67 -12.76,-5a16.53,16.53 0 0 1 -5.11,-12.24c0,-4.1 1.41,-7.83 4.2,-11.09c3.35,-3.85 7.97,-5.8 13.74,-5.8c3.03,0 5.8,0.58 8.26,1.72a16.69,16.69 0 0 1 6.2,4.89l0.24,0.3l-3.18,2.38z" fill="#fff" fill-rule="nonzero" id="svg_27"/>
  </g>
  <g clip-path="url(#d)" transform="matrix(1.33333 0 0 -1.33333 -1080.45 1196.48)" id="svg_28">
   <path d="m836.51,333.5l0,-44.98l8.6,0l0,13.4l10.02,0c2.87,0 5.4,0.4 7.6,1.2a14.06,14.06 0 0 1 8.7,8.27c0.73,1.88 1.1,3.93 1.1,6.14c0,2.21 -0.43,4.3 -1.26,6.24a16.15,16.15 0 0 1 -3.42,5.07a16.16,16.16 0 0 1 -5.07,3.4a15.58,15.58 0 0 1 -6.23,1.27l-20.04,-0.01zm8.6,-7.61l10.51,0c1.36,0 2.54,-0.25 3.57,-0.74a8.19,8.19 0 0 0 2.58,-1.9a8.76,8.76 0 0 0 2.15,-5.71l0,-0.01c0,-1.02 -0.14,-2 -0.43,-2.95a7.41,7.41 0 0 0 -1.32,-2.52a6.21,6.21 0 0 0 -2.3,-1.75a7.93,7.93 0 0 0 -3.32,-0.65l-11.43,0l-0.01,16.23z" fill="url(#e)" id="svg_29"/>
  </g>
  <g clip-path="url(#f)" transform="matrix(1.33333 0 0 -1.33333 -1080.45 1196.48)" id="svg_30">
   <path d="m878.18,333.5l0,-44.98l8.6,0l0,14.32l8.51,0c1.72,-2.45 3.44,-4.87 5.15,-7.25a284.4,284.4 0 0 1 5.27,-7.06l10.26,0a964.43,964.43 0 0 1 -11.2,15.11c2.83,1.1 5.1,2.93 6.8,5.47a15.62,15.62 0 0 1 2.56,8.91c0,2.25 -0.38,4.34 -1.14,6.24a14.08,14.08 0 0 1 -8.06,8.11c-1.91,0.76 -4.02,1.14 -6.32,1.14l-20.43,-0.01zm8.6,-7.61l11.82,0c1.51,0 2.72,-0.29 3.62,-0.86c0.9,-0.58 1.59,-1.27 2.08,-2.1c0.49,-0.81 0.82,-1.67 0.98,-2.57c0.16,-0.9 0.24,-1.68 0.24,-2.34a7.67,7.67 0 0 0 -2.27,-5.68a7.01,7.01 0 0 0 -4.65,-1.88l-11.82,0l0,15.43z" fill="url(#g)" id="svg_31"/>
  </g>
  <g clip-path="url(#h)" transform="matrix(1.33333 0 0 -1.33333 -1080.45 1196.48)" id="svg_32">
   <path d="m923.65,288.52l8.6,0l0,44.93l-8.6,0l0,-44.93z" fill="url(#i)" id="svg_33"/>
  </g>
  <g clip-path="url(#j)" transform="matrix(1.33333 0 0 -1.33333 -1080.45 1196.48)" id="svg_34">
   <path d="m988.05,333.45l-22.12,-25.94l-22.06,25.94l-0.55,0l0,-44.92l8.6,0l0,22.73l14.01,-16.9l14.07,16.9l0,-22.73l8.6,0l0,44.92l-0.55,0z" fill="url(#k)" id="svg_35"/>
  </g>
  <g clip-path="url(#l)" transform="matrix(1.33333 0 0 -1.33333 -1080.45 1196.48)" id="svg_36">
   <path d="m1028.49,333.45l0,-26.75c0,-2.25 -0.37,-4.11 -1.1,-5.59a10.15,10.15 0 0 0 -2.74,-3.5a9.46,9.46 0 0 0 -3.5,-1.77a13.4,13.4 0 0 0 -3.35,-0.5c-0.99,0 -2.1,0.17 -3.35,0.5a9.45,9.45 0 0 0 -3.5,1.78c-1.1,0.85 -2,2.02 -2.74,3.5a12.44,12.44 0 0 0 -1.1,5.58l0,26.75l-8.61,0l0,-26.8c0,-2.86 0.46,-5.46 1.38,-7.8a16.81,16.81 0 0 1 3.9,-5.96a17.44,17.44 0 0 1 6.09,-3.81c2.37,-0.9 5.02,-1.35 7.92,-1.35c2.95,0 5.62,0.45 8,1.35c2.37,0.9 4.4,2.17 6.08,3.8a16.5,16.5 0 0 1 3.87,5.97c0.9,2.34 1.35,4.94 1.35,7.8l0,26.8l-8.6,0z" fill="url(#m)" id="svg_37"/>
  </g>
  <g clip-path="url(#n)" transform="matrix(1.33333 0 0 -1.33333 -1080.45 1196.48)" id="svg_38">
   <path d="m1045.2,333.45l0,-7.93l23.23,0l-25.13,-36.01l0,-0.98l39.33,0l0,7.98l-24.22,0l25.08,35.9l0,1.04l-38.29,0z" fill="url(#o)" id="svg_39"/>
  </g>
 </g>
</svg>
